<mxfile host="app.diagrams.net" modified="2024-09-22T18:22:50.138Z" agent="Mozilla/5.0 (Windows NT 10.0; Win64; x64) AppleWebKit/537.36 (KHTML, like Gecko) Chrome/128.0.0.0 Safari/537.36" etag="dGth6dvXVCpdSTrtXX1K" version="21.1.1" type="device">
  <diagram name="PÃ¡gina-1" id="ad8mFBXMhY7jzrkTNV_Z">
    <mxGraphModel dx="1147" dy="618" grid="1" gridSize="10" guides="1" tooltips="1" connect="1" arrows="1" fold="1" page="1" pageScale="1" pageWidth="827" pageHeight="1169" math="0" shadow="0">
      <root>
        <mxCell id="0" />
        <mxCell id="1" parent="0" />
        <mxCell id="I_Nblgdsw-3vqtEFyrP6-6" style="edgeStyle=orthogonalEdgeStyle;orthogonalLoop=1;jettySize=auto;html=1;exitX=1;exitY=1;exitDx=0;exitDy=0;entryX=0;entryY=0;entryDx=0;entryDy=0;curved=1;" edge="1" parent="1" source="I_Nblgdsw-3vqtEFyrP6-1" target="I_Nblgdsw-3vqtEFyrP6-3">
          <mxGeometry relative="1" as="geometry" />
        </mxCell>
        <mxCell id="I_Nblgdsw-3vqtEFyrP6-11" value="/" style="edgeLabel;html=1;align=center;verticalAlign=middle;resizable=0;points=[];" vertex="1" connectable="0" parent="I_Nblgdsw-3vqtEFyrP6-6">
          <mxGeometry x="-0.044" y="-6" relative="1" as="geometry">
            <mxPoint x="5" y="2" as="offset" />
          </mxGeometry>
        </mxCell>
        <mxCell id="I_Nblgdsw-3vqtEFyrP6-29" style="edgeStyle=orthogonalEdgeStyle;rounded=1;orthogonalLoop=1;jettySize=auto;html=1;exitX=1;exitY=0.5;exitDx=0;exitDy=0;entryX=0;entryY=0.5;entryDx=0;entryDy=0;" edge="1" parent="1" source="I_Nblgdsw-3vqtEFyrP6-1" target="I_Nblgdsw-3vqtEFyrP6-30">
          <mxGeometry relative="1" as="geometry">
            <mxPoint x="490" y="200.33333333333337" as="targetPoint" />
            <Array as="points">
              <mxPoint x="485" y="200" />
            </Array>
          </mxGeometry>
        </mxCell>
        <mxCell id="I_Nblgdsw-3vqtEFyrP6-33" value="d" style="edgeLabel;html=1;align=center;verticalAlign=middle;resizable=0;points=[];" vertex="1" connectable="0" parent="I_Nblgdsw-3vqtEFyrP6-29">
          <mxGeometry x="-0.1229" y="1" relative="1" as="geometry">
            <mxPoint as="offset" />
          </mxGeometry>
        </mxCell>
        <mxCell id="I_Nblgdsw-3vqtEFyrP6-42" style="edgeStyle=orthogonalEdgeStyle;orthogonalLoop=1;jettySize=auto;html=1;exitX=0;exitY=0.5;exitDx=0;exitDy=0;entryX=1;entryY=0.5;entryDx=0;entryDy=0;curved=1;" edge="1" parent="1" source="I_Nblgdsw-3vqtEFyrP6-1" target="I_Nblgdsw-3vqtEFyrP6-40">
          <mxGeometry relative="1" as="geometry" />
        </mxCell>
        <mxCell id="I_Nblgdsw-3vqtEFyrP6-45" value="l" style="edgeLabel;html=1;align=center;verticalAlign=middle;resizable=0;points=[];" vertex="1" connectable="0" parent="I_Nblgdsw-3vqtEFyrP6-42">
          <mxGeometry x="-0.2105" relative="1" as="geometry">
            <mxPoint as="offset" />
          </mxGeometry>
        </mxCell>
        <mxCell id="I_Nblgdsw-3vqtEFyrP6-52" style="edgeStyle=orthogonalEdgeStyle;orthogonalLoop=1;jettySize=auto;html=1;exitX=0;exitY=0;exitDx=0;exitDy=0;entryX=0.994;entryY=0.739;entryDx=0;entryDy=0;entryPerimeter=0;curved=1;" edge="1" parent="1" source="I_Nblgdsw-3vqtEFyrP6-1" target="I_Nblgdsw-3vqtEFyrP6-51">
          <mxGeometry relative="1" as="geometry">
            <Array as="points">
              <mxPoint x="352" y="170" />
              <mxPoint x="315" y="170" />
              <mxPoint x="315" y="124" />
            </Array>
          </mxGeometry>
        </mxCell>
        <mxCell id="I_Nblgdsw-3vqtEFyrP6-53" value=",&amp;nbsp;" style="edgeLabel;html=1;align=center;verticalAlign=middle;resizable=0;points=[];" vertex="1" connectable="0" parent="I_Nblgdsw-3vqtEFyrP6-52">
          <mxGeometry x="-0.083" y="-4" relative="1" as="geometry">
            <mxPoint x="-8" y="15" as="offset" />
          </mxGeometry>
        </mxCell>
        <mxCell id="I_Nblgdsw-3vqtEFyrP6-55" style="edgeStyle=orthogonalEdgeStyle;orthogonalLoop=1;jettySize=auto;html=1;exitX=0;exitY=1;exitDx=0;exitDy=0;entryX=1;entryY=0;entryDx=0;entryDy=0;curved=1;" edge="1" parent="1" source="I_Nblgdsw-3vqtEFyrP6-1" target="I_Nblgdsw-3vqtEFyrP6-54">
          <mxGeometry relative="1" as="geometry" />
        </mxCell>
        <mxCell id="I_Nblgdsw-3vqtEFyrP6-56" value="*&amp;nbsp;" style="edgeLabel;html=1;align=center;verticalAlign=middle;resizable=0;points=[];" vertex="1" connectable="0" parent="I_Nblgdsw-3vqtEFyrP6-55">
          <mxGeometry x="-0.332" y="3" relative="1" as="geometry">
            <mxPoint as="offset" />
          </mxGeometry>
        </mxCell>
        <mxCell id="I_Nblgdsw-3vqtEFyrP6-62" style="edgeStyle=orthogonalEdgeStyle;orthogonalLoop=1;jettySize=auto;html=1;exitX=0.5;exitY=1;exitDx=0;exitDy=0;entryX=0.5;entryY=0;entryDx=0;entryDy=0;curved=1;" edge="1" parent="1" source="I_Nblgdsw-3vqtEFyrP6-1" target="I_Nblgdsw-3vqtEFyrP6-61">
          <mxGeometry relative="1" as="geometry">
            <Array as="points">
              <mxPoint x="350" y="240" />
              <mxPoint x="350" y="267" />
              <mxPoint x="305" y="267" />
            </Array>
          </mxGeometry>
        </mxCell>
        <mxCell id="I_Nblgdsw-3vqtEFyrP6-63" value="=" style="edgeLabel;html=1;align=center;verticalAlign=middle;resizable=0;points=[];" vertex="1" connectable="0" parent="I_Nblgdsw-3vqtEFyrP6-62">
          <mxGeometry x="-0.3378" y="-2" relative="1" as="geometry">
            <mxPoint as="offset" />
          </mxGeometry>
        </mxCell>
        <mxCell id="I_Nblgdsw-3vqtEFyrP6-79" style="edgeStyle=orthogonalEdgeStyle;orthogonalLoop=1;jettySize=auto;html=1;exitX=0;exitY=0;exitDx=0;exitDy=0;entryX=0.5;entryY=1;entryDx=0;entryDy=0;curved=1;" edge="1" parent="1" source="I_Nblgdsw-3vqtEFyrP6-1" target="I_Nblgdsw-3vqtEFyrP6-73">
          <mxGeometry relative="1" as="geometry" />
        </mxCell>
        <mxCell id="I_Nblgdsw-3vqtEFyrP6-82" value="+" style="edgeLabel;html=1;align=center;verticalAlign=middle;resizable=0;points=[];" vertex="1" connectable="0" parent="I_Nblgdsw-3vqtEFyrP6-79">
          <mxGeometry x="-0.064" relative="1" as="geometry">
            <mxPoint as="offset" />
          </mxGeometry>
        </mxCell>
        <mxCell id="I_Nblgdsw-3vqtEFyrP6-80" style="edgeStyle=orthogonalEdgeStyle;orthogonalLoop=1;jettySize=auto;html=1;exitX=0;exitY=0;exitDx=0;exitDy=0;entryX=1;entryY=1;entryDx=0;entryDy=0;curved=1;" edge="1" parent="1" source="I_Nblgdsw-3vqtEFyrP6-1" target="I_Nblgdsw-3vqtEFyrP6-78">
          <mxGeometry relative="1" as="geometry">
            <Array as="points">
              <mxPoint x="330" y="172" />
              <mxPoint x="330" y="110" />
              <mxPoint x="281" y="110" />
            </Array>
          </mxGeometry>
        </mxCell>
        <mxCell id="I_Nblgdsw-3vqtEFyrP6-81" value="&amp;nbsp;;&amp;nbsp;" style="edgeLabel;html=1;align=center;verticalAlign=middle;resizable=0;points=[];" vertex="1" connectable="0" parent="I_Nblgdsw-3vqtEFyrP6-80">
          <mxGeometry x="-0.0519" y="5" relative="1" as="geometry">
            <mxPoint as="offset" />
          </mxGeometry>
        </mxCell>
        <mxCell id="I_Nblgdsw-3vqtEFyrP6-86" style="edgeStyle=orthogonalEdgeStyle;orthogonalLoop=1;jettySize=auto;html=1;exitX=1;exitY=0;exitDx=0;exitDy=0;entryX=0.5;entryY=1;entryDx=0;entryDy=0;curved=1;" edge="1" parent="1" source="I_Nblgdsw-3vqtEFyrP6-1" target="I_Nblgdsw-3vqtEFyrP6-76">
          <mxGeometry relative="1" as="geometry" />
        </mxCell>
        <mxCell id="I_Nblgdsw-3vqtEFyrP6-90" value="{" style="edgeLabel;html=1;align=center;verticalAlign=middle;resizable=0;points=[];" vertex="1" connectable="0" parent="I_Nblgdsw-3vqtEFyrP6-86">
          <mxGeometry x="-0.0432" y="1" relative="1" as="geometry">
            <mxPoint as="offset" />
          </mxGeometry>
        </mxCell>
        <mxCell id="I_Nblgdsw-3vqtEFyrP6-87" style="edgeStyle=orthogonalEdgeStyle;orthogonalLoop=1;jettySize=auto;html=1;exitX=1;exitY=0;exitDx=0;exitDy=0;entryX=0;entryY=1;entryDx=0;entryDy=0;curved=1;" edge="1" parent="1" source="I_Nblgdsw-3vqtEFyrP6-1" target="I_Nblgdsw-3vqtEFyrP6-74">
          <mxGeometry relative="1" as="geometry">
            <Array as="points">
              <mxPoint x="450" y="172" />
              <mxPoint x="450" y="91" />
            </Array>
          </mxGeometry>
        </mxCell>
        <mxCell id="I_Nblgdsw-3vqtEFyrP6-91" value="}" style="edgeLabel;html=1;align=center;verticalAlign=middle;resizable=0;points=[];" vertex="1" connectable="0" parent="I_Nblgdsw-3vqtEFyrP6-87">
          <mxGeometry x="0.0932" relative="1" as="geometry">
            <mxPoint as="offset" />
          </mxGeometry>
        </mxCell>
        <mxCell id="I_Nblgdsw-3vqtEFyrP6-88" style="edgeStyle=orthogonalEdgeStyle;orthogonalLoop=1;jettySize=auto;html=1;exitX=1;exitY=0;exitDx=0;exitDy=0;entryX=0.09;entryY=0.828;entryDx=0;entryDy=0;entryPerimeter=0;curved=1;" edge="1" parent="1" source="I_Nblgdsw-3vqtEFyrP6-1" target="I_Nblgdsw-3vqtEFyrP6-75">
          <mxGeometry relative="1" as="geometry">
            <Array as="points">
              <mxPoint x="510" y="172" />
              <mxPoint x="510" y="90" />
            </Array>
          </mxGeometry>
        </mxCell>
        <mxCell id="I_Nblgdsw-3vqtEFyrP6-92" value="(" style="edgeLabel;html=1;align=center;verticalAlign=middle;resizable=0;points=[];" vertex="1" connectable="0" parent="I_Nblgdsw-3vqtEFyrP6-88">
          <mxGeometry x="0.2607" relative="1" as="geometry">
            <mxPoint as="offset" />
          </mxGeometry>
        </mxCell>
        <mxCell id="I_Nblgdsw-3vqtEFyrP6-89" style="edgeStyle=orthogonalEdgeStyle;orthogonalLoop=1;jettySize=auto;html=1;exitX=1;exitY=0;exitDx=0;exitDy=0;entryX=0.114;entryY=0.887;entryDx=0;entryDy=0;entryPerimeter=0;curved=1;" edge="1" parent="1" source="I_Nblgdsw-3vqtEFyrP6-1" target="I_Nblgdsw-3vqtEFyrP6-77">
          <mxGeometry relative="1" as="geometry">
            <Array as="points">
              <mxPoint x="408" y="180" />
              <mxPoint x="510" y="180" />
              <mxPoint x="510" y="153" />
            </Array>
          </mxGeometry>
        </mxCell>
        <mxCell id="I_Nblgdsw-3vqtEFyrP6-93" value=")" style="edgeLabel;html=1;align=center;verticalAlign=middle;resizable=0;points=[];" vertex="1" connectable="0" parent="I_Nblgdsw-3vqtEFyrP6-89">
          <mxGeometry x="0.3992" y="-2" relative="1" as="geometry">
            <mxPoint as="offset" />
          </mxGeometry>
        </mxCell>
        <mxCell id="I_Nblgdsw-3vqtEFyrP6-97" style="edgeStyle=orthogonalEdgeStyle;orthogonalLoop=1;jettySize=auto;html=1;exitX=0.5;exitY=1;exitDx=0;exitDy=0;entryX=0.5;entryY=0;entryDx=0;entryDy=0;curved=1;" edge="1" parent="1" source="I_Nblgdsw-3vqtEFyrP6-1" target="I_Nblgdsw-3vqtEFyrP6-95">
          <mxGeometry relative="1" as="geometry" />
        </mxCell>
        <mxCell id="I_Nblgdsw-3vqtEFyrP6-103" value="&amp;nbsp;&#39;&amp;nbsp;" style="edgeLabel;html=1;align=center;verticalAlign=middle;resizable=0;points=[];" vertex="1" connectable="0" parent="I_Nblgdsw-3vqtEFyrP6-97">
          <mxGeometry x="0.1737" relative="1" as="geometry">
            <mxPoint as="offset" />
          </mxGeometry>
        </mxCell>
        <mxCell id="I_Nblgdsw-3vqtEFyrP6-1" value="0" style="ellipse;whiteSpace=wrap;html=1;aspect=fixed;fillColor=#ffe6cc;strokeColor=#d79b00;" vertex="1" parent="1">
          <mxGeometry x="340" y="160" width="80" height="80" as="geometry" />
        </mxCell>
        <mxCell id="I_Nblgdsw-3vqtEFyrP6-8" style="edgeStyle=orthogonalEdgeStyle;orthogonalLoop=1;jettySize=auto;html=1;exitX=1;exitY=1;exitDx=0;exitDy=0;entryX=0;entryY=0;entryDx=0;entryDy=0;curved=1;" edge="1" parent="1" source="I_Nblgdsw-3vqtEFyrP6-2" target="I_Nblgdsw-3vqtEFyrP6-4">
          <mxGeometry relative="1" as="geometry" />
        </mxCell>
        <mxCell id="I_Nblgdsw-3vqtEFyrP6-13" value="*&amp;nbsp;" style="edgeLabel;html=1;align=center;verticalAlign=middle;resizable=0;points=[];" vertex="1" connectable="0" parent="I_Nblgdsw-3vqtEFyrP6-8">
          <mxGeometry x="0.1867" y="-7" relative="1" as="geometry">
            <mxPoint as="offset" />
          </mxGeometry>
        </mxCell>
        <mxCell id="I_Nblgdsw-3vqtEFyrP6-2" value="3" style="ellipse;whiteSpace=wrap;html=1;aspect=fixed;" vertex="1" parent="1">
          <mxGeometry x="570" y="310" width="60" height="60" as="geometry" />
        </mxCell>
        <mxCell id="I_Nblgdsw-3vqtEFyrP6-7" style="edgeStyle=orthogonalEdgeStyle;orthogonalLoop=1;jettySize=auto;html=1;exitX=1;exitY=1;exitDx=0;exitDy=0;entryX=0;entryY=0;entryDx=0;entryDy=0;curved=1;" edge="1" parent="1" source="I_Nblgdsw-3vqtEFyrP6-3" target="I_Nblgdsw-3vqtEFyrP6-2">
          <mxGeometry relative="1" as="geometry" />
        </mxCell>
        <mxCell id="I_Nblgdsw-3vqtEFyrP6-12" value="*" style="edgeLabel;html=1;align=center;verticalAlign=middle;resizable=0;points=[];" vertex="1" connectable="0" parent="I_Nblgdsw-3vqtEFyrP6-7">
          <mxGeometry x="0.1375" y="-7" relative="1" as="geometry">
            <mxPoint as="offset" />
          </mxGeometry>
        </mxCell>
        <mxCell id="I_Nblgdsw-3vqtEFyrP6-3" value="2" style="ellipse;whiteSpace=wrap;html=1;aspect=fixed;" vertex="1" parent="1">
          <mxGeometry x="430" y="310" width="60" height="60" as="geometry" />
        </mxCell>
        <mxCell id="I_Nblgdsw-3vqtEFyrP6-18" style="edgeStyle=orthogonalEdgeStyle;orthogonalLoop=1;jettySize=auto;html=1;exitX=0.5;exitY=1;exitDx=0;exitDy=0;entryX=0.5;entryY=1;entryDx=0;entryDy=0;curved=1;" edge="1" parent="1" source="I_Nblgdsw-3vqtEFyrP6-4" target="I_Nblgdsw-3vqtEFyrP6-2">
          <mxGeometry relative="1" as="geometry">
            <Array as="points">
              <mxPoint x="740" y="400" />
              <mxPoint x="600" y="400" />
            </Array>
          </mxGeometry>
        </mxCell>
        <mxCell id="I_Nblgdsw-3vqtEFyrP6-19" value="c&#39;&#39;" style="edgeLabel;html=1;align=center;verticalAlign=middle;resizable=0;points=[];" vertex="1" connectable="0" parent="I_Nblgdsw-3vqtEFyrP6-18">
          <mxGeometry x="-0.2" y="-1" relative="1" as="geometry">
            <mxPoint as="offset" />
          </mxGeometry>
        </mxCell>
        <mxCell id="I_Nblgdsw-3vqtEFyrP6-20" style="edgeStyle=orthogonalEdgeStyle;orthogonalLoop=1;jettySize=auto;html=1;exitX=1;exitY=0.5;exitDx=0;exitDy=0;entryX=0.988;entryY=0.675;entryDx=0;entryDy=0;entryPerimeter=0;curved=1;" edge="1" parent="1" source="I_Nblgdsw-3vqtEFyrP6-4" target="I_Nblgdsw-3vqtEFyrP6-1">
          <mxGeometry relative="1" as="geometry">
            <Array as="points">
              <mxPoint x="800" y="340" />
              <mxPoint x="800" y="260" />
              <mxPoint x="450" y="260" />
              <mxPoint x="450" y="214" />
            </Array>
          </mxGeometry>
        </mxCell>
        <mxCell id="I_Nblgdsw-3vqtEFyrP6-21" value="/" style="edgeLabel;html=1;align=center;verticalAlign=middle;resizable=0;points=[];" vertex="1" connectable="0" parent="I_Nblgdsw-3vqtEFyrP6-20">
          <mxGeometry x="-0.0772" y="2" relative="1" as="geometry">
            <mxPoint as="offset" />
          </mxGeometry>
        </mxCell>
        <mxCell id="I_Nblgdsw-3vqtEFyrP6-4" value="4" style="ellipse;whiteSpace=wrap;html=1;aspect=fixed;" vertex="1" parent="1">
          <mxGeometry x="710" y="310" width="60" height="60" as="geometry" />
        </mxCell>
        <mxCell id="I_Nblgdsw-3vqtEFyrP6-14" style="edgeStyle=orthogonalEdgeStyle;orthogonalLoop=1;jettySize=auto;html=1;exitX=0.5;exitY=0;exitDx=0;exitDy=0;entryX=0.967;entryY=0.183;entryDx=0;entryDy=0;entryPerimeter=0;curved=1;" edge="1" parent="1" source="I_Nblgdsw-3vqtEFyrP6-2" target="I_Nblgdsw-3vqtEFyrP6-2">
          <mxGeometry relative="1" as="geometry">
            <Array as="points">
              <mxPoint x="600" y="280" />
              <mxPoint x="650" y="280" />
              <mxPoint x="650" y="321" />
            </Array>
          </mxGeometry>
        </mxCell>
        <mxCell id="I_Nblgdsw-3vqtEFyrP6-15" value="c&#39;" style="edgeLabel;html=1;align=center;verticalAlign=middle;resizable=0;points=[];" vertex="1" connectable="0" parent="I_Nblgdsw-3vqtEFyrP6-14">
          <mxGeometry x="-0.0069" y="-1" relative="1" as="geometry">
            <mxPoint as="offset" />
          </mxGeometry>
        </mxCell>
        <mxCell id="I_Nblgdsw-3vqtEFyrP6-16" style="edgeStyle=orthogonalEdgeStyle;orthogonalLoop=1;jettySize=auto;html=1;exitX=0.5;exitY=0;exitDx=0;exitDy=0;entryX=1.033;entryY=0.333;entryDx=0;entryDy=0;entryPerimeter=0;curved=1;" edge="1" parent="1" source="I_Nblgdsw-3vqtEFyrP6-4" target="I_Nblgdsw-3vqtEFyrP6-4">
          <mxGeometry relative="1" as="geometry">
            <Array as="points">
              <mxPoint x="740" y="290" />
              <mxPoint x="790" y="290" />
              <mxPoint x="790" y="330" />
            </Array>
          </mxGeometry>
        </mxCell>
        <mxCell id="I_Nblgdsw-3vqtEFyrP6-17" value="*" style="edgeLabel;html=1;align=center;verticalAlign=middle;resizable=0;points=[];" vertex="1" connectable="0" parent="I_Nblgdsw-3vqtEFyrP6-16">
          <mxGeometry x="-0.1095" y="-2" relative="1" as="geometry">
            <mxPoint as="offset" />
          </mxGeometry>
        </mxCell>
        <mxCell id="I_Nblgdsw-3vqtEFyrP6-23" value="Comentarios" style="rounded=1;whiteSpace=wrap;html=1;fillColor=#dae8fc;strokeColor=#6c8ebf;" vertex="1" parent="1">
          <mxGeometry x="470" y="280" width="80" height="20" as="geometry" />
        </mxCell>
        <mxCell id="I_Nblgdsw-3vqtEFyrP6-35" style="edgeStyle=orthogonalEdgeStyle;orthogonalLoop=1;jettySize=auto;html=1;exitX=1;exitY=1;exitDx=0;exitDy=0;entryX=0;entryY=0.5;entryDx=0;entryDy=0;curved=1;" edge="1" parent="1" source="I_Nblgdsw-3vqtEFyrP6-30" target="I_Nblgdsw-3vqtEFyrP6-34">
          <mxGeometry relative="1" as="geometry" />
        </mxCell>
        <mxCell id="I_Nblgdsw-3vqtEFyrP6-36" value="o.c" style="edgeLabel;html=1;align=center;verticalAlign=middle;resizable=0;points=[];" vertex="1" connectable="0" parent="I_Nblgdsw-3vqtEFyrP6-35">
          <mxGeometry x="0.2164" y="-3" relative="1" as="geometry">
            <mxPoint as="offset" />
          </mxGeometry>
        </mxCell>
        <mxCell id="I_Nblgdsw-3vqtEFyrP6-30" value="1" style="ellipse;whiteSpace=wrap;html=1;aspect=fixed;" vertex="1" parent="1">
          <mxGeometry x="500" y="170" width="60" height="60" as="geometry" />
        </mxCell>
        <mxCell id="I_Nblgdsw-3vqtEFyrP6-31" style="edgeStyle=orthogonalEdgeStyle;orthogonalLoop=1;jettySize=auto;html=1;exitX=1;exitY=0;exitDx=0;exitDy=0;entryX=1;entryY=0.5;entryDx=0;entryDy=0;curved=1;" edge="1" parent="1" source="I_Nblgdsw-3vqtEFyrP6-30" target="I_Nblgdsw-3vqtEFyrP6-30">
          <mxGeometry relative="1" as="geometry">
            <Array as="points">
              <mxPoint x="551" y="170" />
              <mxPoint x="580" y="170" />
              <mxPoint x="580" y="200" />
            </Array>
          </mxGeometry>
        </mxCell>
        <mxCell id="I_Nblgdsw-3vqtEFyrP6-32" value="d" style="edgeLabel;html=1;align=center;verticalAlign=middle;resizable=0;points=[];" vertex="1" connectable="0" parent="I_Nblgdsw-3vqtEFyrP6-31">
          <mxGeometry x="0.0073" y="-1" relative="1" as="geometry">
            <mxPoint as="offset" />
          </mxGeometry>
        </mxCell>
        <mxCell id="I_Nblgdsw-3vqtEFyrP6-34" value="24" style="ellipse;whiteSpace=wrap;html=1;aspect=fixed;fillColor=#ffe6cc;strokeColor=#d79b00;" vertex="1" parent="1">
          <mxGeometry x="630" y="170" width="60" height="60" as="geometry" />
        </mxCell>
        <mxCell id="I_Nblgdsw-3vqtEFyrP6-37" value="Numeros" style="rounded=1;whiteSpace=wrap;html=1;fillColor=#dae8fc;strokeColor=#6c8ebf;" vertex="1" parent="1">
          <mxGeometry x="700" y="190" width="80" height="20" as="geometry" />
        </mxCell>
        <mxCell id="I_Nblgdsw-3vqtEFyrP6-39" value="29" style="ellipse;whiteSpace=wrap;html=1;aspect=fixed;fillColor=#ffe6cc;strokeColor=#d79b00;" vertex="1" parent="1">
          <mxGeometry x="130" y="170" width="60" height="60" as="geometry" />
        </mxCell>
        <mxCell id="I_Nblgdsw-3vqtEFyrP6-44" style="edgeStyle=orthogonalEdgeStyle;orthogonalLoop=1;jettySize=auto;html=1;exitX=0;exitY=0.5;exitDx=0;exitDy=0;entryX=1;entryY=0.5;entryDx=0;entryDy=0;curved=1;" edge="1" parent="1" source="I_Nblgdsw-3vqtEFyrP6-40" target="I_Nblgdsw-3vqtEFyrP6-39">
          <mxGeometry relative="1" as="geometry" />
        </mxCell>
        <mxCell id="I_Nblgdsw-3vqtEFyrP6-48" value="o.c" style="edgeLabel;html=1;align=center;verticalAlign=middle;resizable=0;points=[];" vertex="1" connectable="0" parent="I_Nblgdsw-3vqtEFyrP6-44">
          <mxGeometry x="0.287" relative="1" as="geometry">
            <mxPoint x="7" as="offset" />
          </mxGeometry>
        </mxCell>
        <mxCell id="I_Nblgdsw-3vqtEFyrP6-40" value="8" style="ellipse;whiteSpace=wrap;html=1;aspect=fixed;" vertex="1" parent="1">
          <mxGeometry x="230" y="170" width="60" height="60" as="geometry" />
        </mxCell>
        <mxCell id="I_Nblgdsw-3vqtEFyrP6-46" style="edgeStyle=orthogonalEdgeStyle;orthogonalLoop=1;jettySize=auto;html=1;exitX=1;exitY=0;exitDx=0;exitDy=0;entryX=0.5;entryY=0;entryDx=0;entryDy=0;curved=1;" edge="1" parent="1" source="I_Nblgdsw-3vqtEFyrP6-40" target="I_Nblgdsw-3vqtEFyrP6-40">
          <mxGeometry relative="1" as="geometry">
            <Array as="points">
              <mxPoint x="290" y="179" />
              <mxPoint x="290" y="150" />
              <mxPoint x="260" y="150" />
            </Array>
          </mxGeometry>
        </mxCell>
        <mxCell id="I_Nblgdsw-3vqtEFyrP6-47" value="l/d" style="edgeLabel;html=1;align=center;verticalAlign=middle;resizable=0;points=[];" vertex="1" connectable="0" parent="I_Nblgdsw-3vqtEFyrP6-46">
          <mxGeometry x="0.0204" y="1" relative="1" as="geometry">
            <mxPoint x="-5" as="offset" />
          </mxGeometry>
        </mxCell>
        <mxCell id="I_Nblgdsw-3vqtEFyrP6-49" value="Palabras Reservadas e Identificadores" style="rounded=1;whiteSpace=wrap;html=1;fillColor=#dae8fc;strokeColor=#6c8ebf;" vertex="1" parent="1">
          <mxGeometry y="190" width="120" height="30" as="geometry" />
        </mxCell>
        <mxCell id="I_Nblgdsw-3vqtEFyrP6-51" value="30" style="ellipse;whiteSpace=wrap;html=1;aspect=fixed;fillColor=#ffe6cc;strokeColor=#d79b00;" vertex="1" parent="1">
          <mxGeometry x="150" y="80" width="60" height="60" as="geometry" />
        </mxCell>
        <mxCell id="I_Nblgdsw-3vqtEFyrP6-58" style="edgeStyle=orthogonalEdgeStyle;orthogonalLoop=1;jettySize=auto;html=1;exitX=0;exitY=1;exitDx=0;exitDy=0;entryX=0.985;entryY=0.331;entryDx=0;entryDy=0;entryPerimeter=0;curved=1;" edge="1" parent="1" source="I_Nblgdsw-3vqtEFyrP6-54" target="I_Nblgdsw-3vqtEFyrP6-57">
          <mxGeometry relative="1" as="geometry">
            <Array as="points">
              <mxPoint x="209" y="280" />
              <mxPoint x="180" y="280" />
              <mxPoint x="180" y="260" />
            </Array>
          </mxGeometry>
        </mxCell>
        <mxCell id="I_Nblgdsw-3vqtEFyrP6-59" value="=" style="edgeLabel;html=1;align=center;verticalAlign=middle;resizable=0;points=[];" vertex="1" connectable="0" parent="I_Nblgdsw-3vqtEFyrP6-58">
          <mxGeometry x="0.2995" y="-1" relative="1" as="geometry">
            <mxPoint x="-3" y="7" as="offset" />
          </mxGeometry>
        </mxCell>
        <mxCell id="I_Nblgdsw-3vqtEFyrP6-54" value="7" style="ellipse;whiteSpace=wrap;html=1;aspect=fixed;" vertex="1" parent="1">
          <mxGeometry x="200" y="240" width="60" height="60" as="geometry" />
        </mxCell>
        <mxCell id="I_Nblgdsw-3vqtEFyrP6-57" value="28" style="ellipse;whiteSpace=wrap;html=1;aspect=fixed;fillColor=#ffe6cc;strokeColor=#d79b00;" vertex="1" parent="1">
          <mxGeometry x="90" y="240" width="60" height="60" as="geometry" />
        </mxCell>
        <mxCell id="I_Nblgdsw-3vqtEFyrP6-66" style="edgeStyle=orthogonalEdgeStyle;orthogonalLoop=1;jettySize=auto;html=1;exitX=0;exitY=1;exitDx=0;exitDy=0;entryX=1;entryY=0;entryDx=0;entryDy=0;curved=1;" edge="1" parent="1" source="I_Nblgdsw-3vqtEFyrP6-61" target="I_Nblgdsw-3vqtEFyrP6-65">
          <mxGeometry relative="1" as="geometry">
            <Array as="points">
              <mxPoint x="284" y="333.5" />
              <mxPoint x="255" y="333.5" />
              <mxPoint x="255" y="352.5" />
            </Array>
          </mxGeometry>
        </mxCell>
        <mxCell id="I_Nblgdsw-3vqtEFyrP6-69" value="&amp;nbsp;=" style="edgeLabel;html=1;align=center;verticalAlign=middle;resizable=0;points=[];" vertex="1" connectable="0" parent="I_Nblgdsw-3vqtEFyrP6-66">
          <mxGeometry x="0.1449" y="-1" relative="1" as="geometry">
            <mxPoint y="1" as="offset" />
          </mxGeometry>
        </mxCell>
        <mxCell id="I_Nblgdsw-3vqtEFyrP6-67" style="edgeStyle=orthogonalEdgeStyle;orthogonalLoop=1;jettySize=auto;html=1;exitX=0.5;exitY=1;exitDx=0;exitDy=0;entryX=0.487;entryY=-0.03;entryDx=0;entryDy=0;entryPerimeter=0;curved=1;" edge="1" parent="1" source="I_Nblgdsw-3vqtEFyrP6-61" target="I_Nblgdsw-3vqtEFyrP6-64">
          <mxGeometry relative="1" as="geometry" />
        </mxCell>
        <mxCell id="I_Nblgdsw-3vqtEFyrP6-68" value="o.c" style="edgeLabel;html=1;align=center;verticalAlign=middle;resizable=0;points=[];" vertex="1" connectable="0" parent="I_Nblgdsw-3vqtEFyrP6-67">
          <mxGeometry x="-0.2243" y="1" relative="1" as="geometry">
            <mxPoint as="offset" />
          </mxGeometry>
        </mxCell>
        <mxCell id="I_Nblgdsw-3vqtEFyrP6-61" value="6" style="ellipse;whiteSpace=wrap;html=1;aspect=fixed;" vertex="1" parent="1">
          <mxGeometry x="275" y="293.5" width="60" height="60" as="geometry" />
        </mxCell>
        <mxCell id="I_Nblgdsw-3vqtEFyrP6-64" value="26" style="ellipse;whiteSpace=wrap;html=1;aspect=fixed;fillColor=#ffe6cc;strokeColor=#d79b00;" vertex="1" parent="1">
          <mxGeometry x="275" y="383.5" width="60" height="60" as="geometry" />
        </mxCell>
        <mxCell id="I_Nblgdsw-3vqtEFyrP6-65" value="27" style="ellipse;whiteSpace=wrap;html=1;aspect=fixed;fillColor=#ffe6cc;strokeColor=#d79b00;" vertex="1" parent="1">
          <mxGeometry x="185" y="343.5" width="60" height="60" as="geometry" />
        </mxCell>
        <mxCell id="I_Nblgdsw-3vqtEFyrP6-70" value="eof" style="rounded=1;whiteSpace=wrap;html=1;fillColor=#f8cecc;strokeColor=#b85450;" vertex="1" parent="1">
          <mxGeometry x="50" y="420" width="70" height="30" as="geometry" />
        </mxCell>
        <mxCell id="I_Nblgdsw-3vqtEFyrP6-73" value="32" style="ellipse;whiteSpace=wrap;html=1;aspect=fixed;fillColor=#ffe6cc;strokeColor=#d79b00;" vertex="1" parent="1">
          <mxGeometry x="320" y="30" width="60" height="60" as="geometry" />
        </mxCell>
        <mxCell id="I_Nblgdsw-3vqtEFyrP6-74" value="21" style="ellipse;whiteSpace=wrap;html=1;aspect=fixed;fillColor=#ffe6cc;strokeColor=#d79b00;" vertex="1" parent="1">
          <mxGeometry x="460" y="40" width="60" height="60" as="geometry" />
        </mxCell>
        <mxCell id="I_Nblgdsw-3vqtEFyrP6-75" value="22" style="ellipse;whiteSpace=wrap;html=1;aspect=fixed;fillColor=#ffe6cc;strokeColor=#d79b00;" vertex="1" parent="1">
          <mxGeometry x="540" y="40" width="60" height="60" as="geometry" />
        </mxCell>
        <mxCell id="I_Nblgdsw-3vqtEFyrP6-76" value="20" style="ellipse;whiteSpace=wrap;html=1;aspect=fixed;fillColor=#ffe6cc;strokeColor=#d79b00;" vertex="1" parent="1">
          <mxGeometry x="384" y="80" width="60" height="60" as="geometry" />
        </mxCell>
        <mxCell id="I_Nblgdsw-3vqtEFyrP6-77" value="23" style="ellipse;whiteSpace=wrap;html=1;aspect=fixed;fillColor=#ffe6cc;strokeColor=#d79b00;" vertex="1" parent="1">
          <mxGeometry x="600" y="100" width="60" height="60" as="geometry" />
        </mxCell>
        <mxCell id="I_Nblgdsw-3vqtEFyrP6-78" value="31" style="ellipse;whiteSpace=wrap;html=1;aspect=fixed;fillColor=#ffe6cc;strokeColor=#d79b00;" vertex="1" parent="1">
          <mxGeometry x="230" y="30" width="60" height="60" as="geometry" />
        </mxCell>
        <mxCell id="I_Nblgdsw-3vqtEFyrP6-84" style="edgeStyle=orthogonalEdgeStyle;orthogonalLoop=1;jettySize=auto;html=1;exitX=0.5;exitY=0;exitDx=0;exitDy=0;entryX=0.282;entryY=0.055;entryDx=0;entryDy=0;entryPerimeter=0;curved=1;" edge="1" parent="1" source="I_Nblgdsw-3vqtEFyrP6-1" target="I_Nblgdsw-3vqtEFyrP6-1">
          <mxGeometry relative="1" as="geometry">
            <Array as="points">
              <mxPoint x="390" y="160" />
              <mxPoint x="390" y="140" />
              <mxPoint x="363" y="140" />
            </Array>
          </mxGeometry>
        </mxCell>
        <mxCell id="I_Nblgdsw-3vqtEFyrP6-85" value="del" style="edgeLabel;html=1;align=center;verticalAlign=middle;resizable=0;points=[];" vertex="1" connectable="0" parent="I_Nblgdsw-3vqtEFyrP6-84">
          <mxGeometry x="0.0397" relative="1" as="geometry">
            <mxPoint as="offset" />
          </mxGeometry>
        </mxCell>
        <mxCell id="I_Nblgdsw-3vqtEFyrP6-101" style="edgeStyle=orthogonalEdgeStyle;orthogonalLoop=1;jettySize=auto;html=1;exitX=1;exitY=1;exitDx=0;exitDy=0;entryX=0;entryY=0;entryDx=0;entryDy=0;curved=1;" edge="1" parent="1" source="I_Nblgdsw-3vqtEFyrP6-95" target="I_Nblgdsw-3vqtEFyrP6-100">
          <mxGeometry relative="1" as="geometry" />
        </mxCell>
        <mxCell id="I_Nblgdsw-3vqtEFyrP6-102" value="&amp;nbsp;&#39;&amp;nbsp;" style="edgeLabel;html=1;align=center;verticalAlign=middle;resizable=0;points=[];" vertex="1" connectable="0" parent="I_Nblgdsw-3vqtEFyrP6-101">
          <mxGeometry x="-0.2732" y="-4" relative="1" as="geometry">
            <mxPoint as="offset" />
          </mxGeometry>
        </mxCell>
        <mxCell id="I_Nblgdsw-3vqtEFyrP6-95" value="5" style="ellipse;whiteSpace=wrap;html=1;aspect=fixed;" vertex="1" parent="1">
          <mxGeometry x="350" y="323.5" width="60" height="60" as="geometry" />
        </mxCell>
        <mxCell id="I_Nblgdsw-3vqtEFyrP6-100" value="25" style="ellipse;whiteSpace=wrap;html=1;aspect=fixed;fillColor=#ffe6cc;strokeColor=#d79b00;" vertex="1" parent="1">
          <mxGeometry x="420" y="400" width="60" height="60" as="geometry" />
        </mxCell>
        <mxCell id="I_Nblgdsw-3vqtEFyrP6-104" style="edgeStyle=orthogonalEdgeStyle;orthogonalLoop=1;jettySize=auto;html=1;exitX=0;exitY=1;exitDx=0;exitDy=0;entryX=0.5;entryY=1;entryDx=0;entryDy=0;curved=1;" edge="1" parent="1" source="I_Nblgdsw-3vqtEFyrP6-95" target="I_Nblgdsw-3vqtEFyrP6-95">
          <mxGeometry relative="1" as="geometry">
            <Array as="points">
              <mxPoint x="350" y="375" />
              <mxPoint x="350" y="400" />
              <mxPoint x="380" y="400" />
            </Array>
          </mxGeometry>
        </mxCell>
        <mxCell id="I_Nblgdsw-3vqtEFyrP6-105" value="c" style="edgeLabel;html=1;align=center;verticalAlign=middle;resizable=0;points=[];" vertex="1" connectable="0" parent="I_Nblgdsw-3vqtEFyrP6-104">
          <mxGeometry x="-0.0237" y="2" relative="1" as="geometry">
            <mxPoint as="offset" />
          </mxGeometry>
        </mxCell>
      </root>
    </mxGraphModel>
  </diagram>
</mxfile>
